<svg width="512" height="512" viewBox="0 0 512 512" fill="none" xmlns="http://www.w3.org/2000/svg">
  <!-- Background Circle -->
  <circle cx="256" cy="256" r="256" fill="url(#gradient)"/>

  <!-- Gradient Definition -->
  <defs>
    <linearGradient id="gradient" x1="0%" y1="0%" x2="100%" y2="100%">
      <stop offset="0%" style="stop-color:#4CAF50;stop-opacity:1" />
      <stop offset="100%" style="stop-color:#2196F3;stop-opacity:1" />
    </linearGradient>
  </defs>

  <!-- Calendar Icon -->
  <g>
    <!-- Calendar Base -->
    <rect x="120" y="140" width="272" height="280" rx="24" fill="white" opacity="0.95"/>

    <!-- Calendar Header -->
    <rect x="120" y="140" width="272" height="70" rx="24" fill="white"/>
    <rect x="120" y="175" width="272" height="35" fill="#1976D2"/>

    <!-- Calendar Binding Rings -->
    <circle cx="170" cy="140" r="12" fill="#1976D2"/>
    <circle cx="256" cy="140" r="12" fill="#1976D2"/>
    <circle cx="342" cy="140" r="12" fill="#1976D2"/>

    <!-- Weekend Days (Sat/Sun) Highlighted -->
    <!-- Week Grid -->
    <g opacity="0.3">
      <!-- Row 1 -->
      <rect x="140" y="230" width="30" height="30" rx="4" fill="#666"/>
      <rect x="180" y="230" width="30" height="30" rx="4" fill="#666"/>
      <rect x="220" y="230" width="30" height="30" rx="4" fill="#666"/>
      <rect x="260" y="230" width="30" height="30" rx="4" fill="#666"/>
      <rect x="300" y="230" width="30" height="30" rx="4" fill="#666"/>

      <!-- Row 2 -->
      <rect x="140" y="275" width="30" height="30" rx="4" fill="#666"/>
      <rect x="180" y="275" width="30" height="30" rx="4" fill="#666"/>
      <rect x="220" y="275" width="30" height="30" rx="4" fill="#666"/>
      <rect x="260" y="275" width="30" height="30" rx="4" fill="#666"/>
      <rect x="300" y="275" width="30" height="30" rx="4" fill="#666"/>
    </g>

    <!-- Weekend Days Highlighted -->
    <rect x="340" y="230" width="30" height="30" rx="4" fill="#4CAF50"/>
    <rect x="340" y="275" width="30" height="30" rx="4" fill="#4CAF50"/>

    <!-- Task Checkmarks on Weekend Days -->
    <!-- Saturday Check -->
    <path d="M 345 243 L 350 248 L 365 233" stroke="white" stroke-width="3" stroke-linecap="round" stroke-linejoin="round" fill="none"/>

    <!-- Sunday Check -->
    <path d="M 345 288 L 350 293 L 365 278" stroke="white" stroke-width="3" stroke-linecap="round" stroke-linejoin="round" fill="none"/>
  </g>

  <!-- Large Checkmark Overlay (Main Symbol) -->
  <g>
    <circle cx="380" cy="380" r="80" fill="#4CAF50"/>
    <circle cx="380" cy="380" r="80" fill="white" opacity="0.2"/>
    <path d="M 345 380 L 365 400 L 415 350" stroke="white" stroke-width="12" stroke-linecap="round" stroke-linejoin="round" fill="none"/>
  </g>
</svg>
